<?xml version="1.0" encoding="utf-8"?>
<!-- Uploaded to: SVG Repo, www.svgrepo.com, Generator: SVG Repo Mixer Tools -->
<svg fill="#000000" height="800px" width="800px" version="1.1" id="Layer_1" xmlns="http://www.w3.org/2000/svg" xmlns:xlink="http://www.w3.org/1999/xlink" 
	 viewBox="0 0 128 128" xml:space="preserve">
<path d="M91.4,20.1h11.1c1.5,0,2.7,1.2,2.7,2.7c0,1.5-1.2,2.7-2.7,2.7h-11c-0.7,0-1.4,0.2-1.9,0.8c-0.8,0.9-1,2.1-0.6,3.1
	c0.4,0.9,1,1.8,1.6,2.6l6.4,0c0.5,0,1,0.1,1.4,0.4l14.9,8c1.2,0.8,2.1,2.2,2.1,3.7c0,2.4-2,4.4-4.4,4.4h-9.7l-13.1,32l-8.4,8.4v30.7
	c0,3.1-2.5,5.6-5.6,5.6c-3.1,0-5.6-2.5-5.6-5.6v-33H46l-5.1,7.7l12.5,21.8c1.5,2.7,0.6,6.2-2.2,7.7c-2.7,1.5-6.1,0.6-7.7-2.1
	l-12.8-22v-9.8l-6.4,8.6V119c0,3.1-2.5,5.6-5.6,5.6c-3.1,0-5.6-2.5-5.6-5.6l0-22l5.3-8.4v-9.9l-4.1,6.4c-0.1,0.2-0.3,0.4-0.6,0.4
	c-0.3,0-0.6-0.3-0.6-0.6V62.7c0.2-4.4,3.9-8,8.2-8h55.4l8.8-13.5l-7.3-7.3c-0.2-0.2-0.4-0.5-0.4-0.8c0-0.6,0.5-1.1,1.1-1.1l5.3,0
	c-1.3-2.8-2.1-5.9-2.1-9.1C82.2,11.4,91.5,2,103,2c1.5,0,2.7,1.2,2.7,2.7c0,1.5-1.2,2.7-2.7,2.7c-7.9,0-14.4,6-15.3,13.6
	C88.8,20.5,90.1,20.1,91.4,20.1"/>
</svg>