<?xml version="1.0" encoding="iso-8859-1"?>
<!-- Uploaded to: SVG Repo, www.svgrepo.com, Generator: SVG Repo Mixer Tools -->
<svg fill="#000000" height="800px" width="800px" version="1.1" id="Layer_1" xmlns="http://www.w3.org/2000/svg" xmlns:xlink="http://www.w3.org/1999/xlink" 
	 viewBox="0 0 512.06 512.06" xml:space="preserve">
<g>
	<g>
		<path d="M467.696,474.816c-19.138-92.213-114.194-206.724-172.314-269.859c2.966-5.923,4.785-12.509,4.785-19.58
			c0-14.354-6.991-27.004-17.638-35.072c0.397-4.299,5.597-53.204,35.293-53.204c45.886,0,60.195-77.939,61.678-86.819
			c0.803-4.811-2.454-9.357-7.256-10.161c-4.829-0.803-9.357,2.454-10.161,7.256c-3.116,18.697-17.938,72.068-44.262,72.068
			c-38.665,0-49.364,45.188-52.074,62.949c-3.143-0.706-6.365-1.156-9.719-1.156c-3.346,0-6.577,0.45-9.71,1.156
			c-2.71-17.761-13.409-62.949-52.083-62.949c-26.386,0-40.889-52.03-44.253-72.077c-0.803-4.802-5.367-8.015-10.169-7.239
			c-4.802,0.794-8.051,5.341-7.247,10.152c1.483,8.881,15.793,86.819,61.67,86.819c29.564,0,34.887,48.852,35.302,53.204
			c-10.646,8.068-17.646,20.718-17.646,35.072c0,7.071,1.827,13.656,4.793,19.58c-58.138,63.153-153.238,177.708-172.279,269.7
			c-0.327,1.395-2.966,13.895,5.782,24.567c6.991,8.519,18.759,12.835,35.019,12.835c1.121,0,2.251-0.027,3.416-0.062
			c0.415-0.018,0.821-0.062,1.236-0.132c1.801-0.318,44.623-8.113,87.676-29.917c39.3-19.915,65.748-45.135,78.521-74.214
			c12.782,29.122,39.212,54.325,78.477,74.214c43.052,21.804,85.875,29.599,87.676,29.917c0.415,0.071,0.821,0.115,1.236,0.132
			c1.165,0.035,2.295,0.062,3.416,0.062c16.26,0,28.028-4.317,35.019-12.835C470.344,488.888,468.137,476.838,467.696,474.816z
			 M219.323,322.62l-79.448,123.586c-1.695,2.631-4.529,4.061-7.442,4.061c-1.633,0-3.284-0.459-4.758-1.404
			c-4.105-2.639-5.288-8.095-2.657-12.2l39.777-61.873l-9.816-4.908c-4.361-2.18-6.126-7.477-3.946-11.847
			c2.18-4.352,7.477-6.135,11.847-3.946l11.52,5.764l30.067-46.777c2.639-4.105,8.104-5.288,12.2-2.657
			C220.77,313.06,221.953,318.524,219.323,322.62z M277.417,200.861c-0.018,0.026-0.044,0.035-0.062,0.062
			c-1.183,1.615-2.542,3.028-3.981,4.317c-0.274,0.229-0.547,0.45-0.821,0.671c-1.183,0.962-2.445,1.792-3.761,2.534
			c-0.485,0.265-0.953,0.547-1.457,0.786c-1.245,0.6-2.56,1.05-3.884,1.448c-0.547,0.159-1.059,0.371-1.615,0.503
			c-1.88,0.424-3.822,0.68-5.809,0.68c-1.977,0-3.92-0.256-5.8-0.68c-0.556-0.132-1.068-0.344-1.615-0.503
			c-1.333-0.397-2.639-0.847-3.884-1.448c-0.503-0.238-0.971-0.521-1.457-0.786c-1.315-0.742-2.578-1.571-3.761-2.534
			c-0.274-0.221-0.556-0.441-0.821-0.671c-1.439-1.289-2.798-2.701-3.981-4.317c-0.018-0.026-0.044-0.035-0.062-0.062
			c-3.178-4.361-5.102-9.684-5.102-15.484c0-14.601,11.882-26.483,26.483-26.483c14.61,0,26.483,11.882,26.483,26.483
			C282.511,191.177,280.586,196.5,277.417,200.861z M384.39,448.863c-1.474,0.945-3.125,1.404-4.767,1.404
			c-2.904,0-5.738-1.43-7.433-4.061L292.742,322.62c-2.631-4.096-1.448-9.56,2.657-12.2c4.087-2.631,9.551-1.448,12.2,2.657
			l30.067,46.777l11.52-5.764c4.37-2.189,9.666-0.406,11.847,3.946c2.18,4.37,0.415,9.666-3.946,11.847l-9.816,4.908l39.777,61.873
			C389.677,440.768,388.495,446.224,384.39,448.863z"/>
	</g>
</g>
</svg>